<svg width="24" height="24" viewBox="0 0 24 24" fill="none" xmlns="http://www.w3.org/2000/svg">
<path d="M18.8952 20.4009H18.3877V19.2613C18.3877 16.8626 17.0503 14.3699 14.8102 12.5934L14.0617 11.9998L14.8102 11.4065C17.0503 9.63026 18.3877 7.13767 18.3877 4.73868V3.59909H18.8952C19.3367 3.59909 19.6947 3.24109 19.6947 2.7995C19.6947 2.358 19.3367 2 18.8952 2H4.79959C4.358 2 4 2.358 4 2.7995C4 3.24109 4.358 3.59909 4.79959 3.59909H5.3072V4.51929C5.3072 7.24207 6.62469 9.81996 8.83148 11.4156L9.63997 11.9998L8.83148 12.5845C6.62469 14.1797 5.3072 16.7577 5.3072 19.4807V20.401H4.79959C4.358 20.401 4 20.7589 4 21.2005C4 21.642 4.358 22 4.79959 22H18.8951C19.3366 22 19.6946 21.642 19.6946 21.2005C19.6947 20.7589 19.3367 20.4009 18.8952 20.4009ZM6.50659 19.4807C6.50659 17.1415 7.63838 14.9269 9.53427 13.5565L10.3773 12.9468C10.6802 12.7278 10.8611 12.3739 10.8611 11.9998C10.8611 11.6259 10.6802 11.2718 10.3771 11.0528L9.53417 10.4437C7.63838 9.07296 6.50659 6.85837 6.50659 4.51938V4.18449C6.50659 3.86129 6.76859 3.59919 7.09189 3.59919H16.603C16.9262 3.59919 17.1884 3.86129 17.1884 4.18449V4.73879C17.1884 6.77478 16.0208 8.91617 14.0653 10.4667L13.2861 11.0845C13.005 11.3076 12.8439 11.6413 12.8439 12C12.8439 12.3587 13.005 12.6925 13.2864 12.9156L14.0651 13.5333C16.0209 15.0841 17.1884 17.2254 17.1884 19.2613V19.8157C17.1884 20.1389 16.9263 20.401 16.603 20.401H7.09189C6.76869 20.401 6.50659 20.139 6.50659 19.8157V19.4807Z" fill="currentColor"/>
<path d="M16.0097 18.9692C15.1281 17.4229 12.9048 15.918 11.8464 15.918C10.788 15.918 8.56476 17.4229 7.68306 18.9692C7.61026 19.0967 7.61086 19.2537 7.68486 19.3805C7.75866 19.5076 7.89466 19.5854 8.04156 19.5854H15.6512C15.7982 19.5854 15.9339 19.5074 16.0077 19.3803C16.0816 19.2535 16.0824 19.0968 16.0097 18.9692Z" fill="currentColor"/>
</svg>
