
<svg fill="currentColor" version="1.1" id="Layer_1" xmlns="http://www.w3.org/2000/svg" xmlns:xlink="http://www.w3.org/1999/xlink" 
	 viewBox="0 0 512 512" xml:space="preserve">
<g>
	<g>
		<path d="M235.711,86.939l-5.693-13.565C211.309,28.801,167.987,0,119.652,0C53.675,0,0,53.676,0,119.652
			s53.675,119.652,119.652,119.652c47.838,0,90.984-28.394,109.921-72.336l5.878-13.64l-57.364-33.12L235.711,86.939z
			 M191.935,166.762c-15.746,24.168-42.778,39.151-72.283,39.151c-47.564,0-86.261-38.697-86.261-86.261
			c0-47.564,38.697-86.261,86.261-86.261c29.913,0,57.164,15.299,72.814,39.957l-81.162,46.86L191.935,166.762z"/>
	</g>
</g>
<g>
	<g>
		<circle cx="128.557" cy="67.339" r="13.913"/>
	</g>
</g>
<g>
	<g>
		<path d="M406.261,235.965c-64.024,0-116.113,52.088-116.113,116.113V512H512V341.704C512,283.4,464.565,235.965,406.261,235.965z
			 M478.609,478.609H323.539V352.078c0-45.613,37.109-82.721,82.721-82.721c39.893,0,72.348,32.455,72.348,72.348V478.609z"/>
	</g>
</g>
<g>
	<g>
		<circle cx="368.974" cy="344.487" r="13.913"/>
	</g>
</g>
<g>
	<g>
		<circle cx="433.53" cy="344.487" r="13.913"/>
	</g>
</g>
<g>
	<g>
		<circle cx="278.261" cy="119.096" r="13.913"/>
	</g>
</g>
<g>
	<g>
		<circle cx="338.922" cy="119.652" r="13.913"/>
	</g>
</g>
<g>
	<g>
		<circle cx="399.583" cy="119.652" r="13.913"/>
	</g>
</g>
<g>
	<g>
		<circle cx="399.304" cy="183.652" r="13.913"/>
	</g>
</g>
</svg>