<svg viewBox="0 0 1024 1024" fill="none" xmlns="http://www.w3.org/2000/svg">
<path d="M780.525 585.428L880 585.284V438.429L780.669 438.141L769.6 438.429C748.9 438.285 743.15 421.186 743.15 400.35C743.15 390.004 747.319 380.664 754.075 373.91L824.225 303.788L720.15 199.753L649.856 270.02C643.1 276.773 633.756 280.94 623.406 280.94C602.562 280.94 585.744 264.128 585.6 243.436V144H438.4V243.005H438.256C438.113 263.841 421.294 280.653 400.45 280.653C390.244 280.653 381.044 276.486 374.288 270.02L303.706 199.466L199.775 303.5L269.925 373.623C269.925 373.623 269.925 373.767 269.781 373.767C276.537 380.664 280.706 390.004 280.706 400.35C280.706 421.042 274.956 437.998 254.256 438.429H144V585.571L243.188 585.284V585.571C263.887 585.715 280.706 602.527 280.706 623.363C280.706 633.565 276.538 642.762 270.069 649.515L199.631 719.925L303.706 823.959L373.856 753.837C373.856 753.837 374 753.837 374 753.981C380.756 747.371 390.1 743.06 400.45 743.06C421.15 743.06 438.112 748.951 438.4 769.643C438.4 769.643 438.256 780.42 438.4 780.42V880L585.6 879.713V780.42H585.744C586.031 759.728 602.706 743.06 623.406 743.06C633.756 743.06 642.956 747.227 649.856 753.837H650L720.15 823.959L824.225 719.925L754.075 649.803C747.463 643.049 743.294 633.709 743.294 623.363C743.15 602.384 759.825 585.571 780.525 585.428ZM512 658.568C430.781 658.568 364.944 592.756 364.944 511.569C364.944 430.382 430.781 364.426 512 364.426C593.219 364.426 659.056 430.238 659.056 511.569C659.2 592.756 593.219 658.568 512 658.568Z" fill="currentColor"/>
</svg>
