<svg fill="currentColor" version="1.1" id="Layer_1" xmlns="http://www.w3.org/2000/svg" xmlns:xlink="http://www.w3.org/1999/xlink" 
	 viewBox="0 0 512 512" xml:space="preserve">
<g>
	<g>
		<rect x="396.8" y="320" width="115.2" height="25.6"/>
	</g>
</g>
<g>
	<g>
		<rect x="396.8" y="371.2" width="115.2" height="25.6"/>
	</g>
</g>
<g>
	<g>
		<rect x="396.8" y="422.4" width="115.2" height="25.6"/>
	</g>
</g>
<g>
	<g>
		<rect x="281.6" y="268.8" width="230.4" height="25.6"/>
	</g>
</g>
<g>
	<g>
		<rect x="281.6" y="217.6" width="230.4" height="25.6"/>
	</g>
</g>
<g>
	<g>
		<rect x="140.8" y="473.6" width="230.4" height="25.6"/>
	</g>
</g>
<g>
	<g>
		<rect x="140.8" y="422.4" width="230.4" height="25.6"/>
	</g>
</g>
<g>
	<g>
		<rect x="140.8" y="371.2" width="230.4" height="25.6"/>
	</g>
</g>
<g>
	<g>
		<rect x="140.8" y="320" width="230.4" height="25.6"/>
	</g>
</g>
<g>
	<g>
		<rect y="320" width="115.2" height="25.6"/>
	</g>
</g>
<g>
	<g>
		<rect y="371.2" width="115.2" height="25.6"/>
	</g>
</g>
<g>
	<g>
		<rect y="422.4" width="115.2" height="25.6"/>
	</g>
</g>
<g>
	<g>
		<rect y="268.8" width="230.4" height="25.6"/>
	</g>
</g>
<g>
	<g>
		<rect y="217.6" width="230.4" height="25.6"/>
	</g>
</g>
<g>
	<g>
		<rect y="166.4" width="230.4" height="25.6"/>
	</g>
</g>
<g>
	<g>
		<rect y="115.2" width="230.4" height="25.6"/>
	</g>
</g>
<g>
	<g>
		<rect y="64" width="230.4" height="25.6"/>
	</g>
</g>
<g>
	<g>
		<rect y="12.8" width="230.4" height="25.6"/>
	</g>
</g>
</svg>