<svg viewBox="0 0 800 800" fill="none" xmlns="http://www.w3.org/2000/svg">
<path d="M382.316 558.333C388.09 552.431 391.592 544.677 392.202 536.442C392.812 528.207 390.491 520.022 385.649 513.333C382.951 509.317 379.369 505.971 375.177 503.555C370.985 501.138 366.295 499.714 361.467 499.392C356.639 499.07 351.802 499.859 347.326 501.698C342.851 503.537 338.856 506.377 335.649 510L258.982 586.667L258.982 133.333C258.982 124.493 255.47 116.014 249.219 109.763C242.968 103.512 234.489 100 225.649 100C216.808 100 208.33 103.512 202.079 109.763C195.827 116.014 192.316 124.493 192.316 133.333L192.316 586.667L115.649 510C112.442 506.377 108.447 503.537 103.972 501.698C99.4959 499.859 94.6585 499.07 89.8306 499.392C85.0026 499.714 80.3127 501.138 76.1208 503.555C71.9289 505.971 68.3466 509.317 65.6489 513.333C60.8069 520.022 58.4857 528.207 59.0957 536.442C59.7057 544.677 63.2075 552.431 68.9822 558.333L202.315 690C205.282 693.233 208.888 695.815 212.905 697.58C216.921 699.346 221.261 700.258 225.649 700.258C230.037 700.258 234.376 699.346 238.393 697.58C242.41 695.815 246.016 693.233 248.982 690L382.316 558.333Z" fill="currentColor"/>
<path d="M417.035 241.667C411.261 247.569 407.759 255.323 407.149 263.558C406.539 271.793 408.86 279.978 413.702 286.667C416.4 290.684 419.982 294.029 424.174 296.445C428.366 298.862 433.056 300.286 437.884 300.608C442.712 300.93 447.549 300.141 452.025 298.302C456.5 296.463 460.495 293.623 463.702 290L540.369 213.333V666.667C540.369 675.507 543.881 683.986 550.132 690.237C556.383 696.488 564.862 700 573.702 700C582.543 700 591.021 696.488 597.272 690.237C603.523 683.986 607.035 675.507 607.035 666.667L607.035 213.333L683.702 290C686.909 293.623 690.904 296.463 695.379 298.302C699.855 300.141 704.692 300.93 709.52 300.608C714.348 300.286 719.038 298.862 723.23 296.445C727.422 294.029 731.004 290.684 733.702 286.667C738.544 279.978 740.865 271.793 740.255 263.558C739.645 255.323 736.143 247.569 730.369 241.667L597.035 110C594.069 106.767 590.463 104.186 586.446 102.42C582.43 100.654 578.09 99.7422 573.702 99.7422C569.314 99.7422 564.974 100.654 560.958 102.42C556.941 104.186 553.335 106.767 550.369 110L417.035 241.667Z" fill="currentColor"/>
</svg>
