<svg viewBox="0 0 180 180" fill="none" xmlns="http://www.w3.org/2000/svg">
<path d="M129.438 44.375H151.25C152.355 44.375 153.25 45.2704 153.25 46.375V73.5C153.25 74.6046 152.355 75.5 151.25 75.5H129.438M129.438 44.375H107.625C106.52 44.375 105.625 45.2704 105.625 46.375V73.5C105.625 74.6046 106.52 75.5 107.625 75.5H129.438M129.438 44.375V32M129.438 75.5V147.875" stroke="currentColor" stroke-width="7"/>
<path d="M49.8125 135.5L28 135.5C26.8954 135.5 26 134.605 26 133.5L26 106.375C26 105.27 26.8954 104.375 28 104.375L49.8125 104.375M49.8125 135.5L71.625 135.5C72.7296 135.5 73.625 134.605 73.625 133.5L73.625 106.375C73.625 105.27 72.7296 104.375 71.625 104.375L49.8125 104.375M49.8125 135.5L49.8125 147.875M49.8125 104.375L49.8125 32" stroke="currentColor" stroke-width="7"/>
</svg>
